<?xml version="1.0" standalone="no"?>
<!DOCTYPE svg PUBLIC "-//W3C//DTD SVG 20010904//EN"
 "http://www.w3.org/TR/2001/REC-SVG-20010904/DTD/svg10.dtd">
<svg version="1.0" xmlns="http://www.w3.org/2000/svg"
 width="118.000000pt" height="18.000000pt" viewBox="0 0 118.000000 18.000000"
 preserveAspectRatio="xMidYMid meet">

<g transform="translate(0.000000,18.000000) scale(0.100000,-0.100000)"
fill="#000000" stroke="none">
<path d="M108 159 c-32 -18 -22 -57 18 -76 44 -21 42 -38 -3 -37 -22 1 -33 -3
-33 -12 0 -17 41 -28 69 -19 50 15 44 78 -8 90 -46 10 -42 39 4 32 25 -4 35
-2 35 8 0 24 -50 33 -82 14z"/>
<path d="M275 161 c-3 -5 -1 -12 5 -16 13 -8 13 -102 0 -110 -16 -10 -1 -25
25 -25 26 0 46 21 27 28 -15 5 -16 98 -2 107 6 3 10 10 10 16 0 12 -57 12 -65
0z"/>
<path d="M435 160 c-3 -5 1 -10 9 -10 13 0 16 -12 16 -55 0 -48 -2 -55 -20
-55 -11 0 -20 -5 -20 -10 0 -17 27 -22 49 -10 18 9 21 20 21 80 0 68 -1 70
-24 70 -14 0 -28 -4 -31 -10z"/>
<path d="M597 95 c-19 -56 -22 -75 -12 -75 7 0 15 9 18 20 7 27 53 27 62 0 3
-11 12 -20 20 -20 10 0 8 17 -12 75 -14 43 -30 75 -38 75 -8 0 -24 -32 -38
-75z m52 -7 c1 -5 -6 -8 -14 -8 -16 0 -19 9 -8 36 6 16 7 16 14 -2 4 -10 8
-22 8 -26z"/>
<path d="M780 95 c0 -82 17 -103 22 -27 l3 47 14 -27 c8 -16 19 -28 26 -28 6
0 16 12 22 28 10 25 11 24 12 -20 1 -36 5 -48 16 -48 12 0 15 15 15 75 0 61
-3 75 -16 75 -8 0 -22 -16 -30 -35 -8 -19 -17 -35 -20 -35 -3 0 -12 16 -20 35
-8 19 -21 35 -29 35 -12 0 -15 -15 -15 -75z"/>
<path d="M1003 154 c-3 -8 -3 -39 1 -67 8 -71 45 -97 91 -63 16 11 20 27 20
77 0 39 -4 64 -12 66 -8 3 -13 -15 -15 -59 -3 -60 -4 -63 -28 -63 -24 0 -25 3
-28 63 -3 59 -16 80 -29 46z"/>
</g>
</svg>
